<svg xmlns="http://www.w3.org/2000/svg" xmlns:xlink="http://www.w3.org/1999/xlink" viewBox="0,0,256,256" width="96px" height="96px" fill-rule="nonzero"><g fill="#ffffff" fill-rule="nonzero" stroke="none" stroke-width="1" stroke-linecap="butt" stroke-linejoin="miter" stroke-miterlimit="10" stroke-dasharray="" stroke-dashoffset="0" font-family="none" font-weight="none" font-size="none" text-anchor="none" style="mix-blend-mode: normal"><g transform="scale(5.33333,5.33333)"><path d="M36.5,5c-2.47377,0.00241 -4.73174,1.40881 -5.82476,3.62801c-1.09302,2.2192 -0.8316,4.86647 0.67437,6.82902l-5.57617,7.04297h-7.94922c-0.69505,-2.9306 -3.31233,-4.99984 -6.32422,-5c-3.58985,0 -6.5,2.91015 -6.5,6.5c0,3.58985 2.91015,6.5 6.5,6.5c3.00897,-0.00377 5.62203,-2.07224 6.31641,-5h7.95703l5.57617,7.04297c-1.50597,1.96255 -1.76739,4.60982 -0.67437,6.82902c1.09302,2.2192 3.35098,3.6256 5.82476,3.62801c3.58985,0 6.5,-2.91015 6.5,-6.5c0,-3.58985 -2.91015,-6.5 -6.5,-6.5c-0.97785,0.00239 -1.94256,0.22538 -2.82227,0.65234l-5.26367,-6.65234l5.26172,-6.64844c0.88062,0.42591 1.84601,0.64756 2.82422,0.64844c3.58985,0 6.5,-2.91015 6.5,-6.5c0,-3.58985 -2.91015,-6.5 -6.5,-6.5z"></path></g></g></svg>